<?xml version="1.0" encoding="UTF-8" standalone="no"?>
<!-- Created with Inkscape (http://www.inkscape.org/) -->

<svg
   xmlns:dc="http://purl.org/dc/elements/1.1/"
   xmlns:cc="http://creativecommons.org/ns#"
   xmlns:rdf="http://www.w3.org/1999/02/22-rdf-syntax-ns#"
   xmlns:svg="http://www.w3.org/2000/svg"
   xmlns="http://www.w3.org/2000/svg"
   xmlns:sodipodi="http://sodipodi.sourceforge.net/DTD/sodipodi-0.dtd"
   xmlns:inkscape="http://www.inkscape.org/namespaces/inkscape"
   width="113.38477"
   height="113.38477"
   viewBox="0 0 29.99972 29.999719"
   version="1.1"
   id="svg8"
   sodipodi:docname="logo.svg"
   inkscape:version="0.92.3 (5aff6ba, 2018-11-25)">
  <defs
     id="defs2">
    <filter
       style="color-interpolation-filters:sRGB"
       inkscape:label="Drop Shadow"
       id="filter200">
      <feFlood
         flood-opacity="0.498039"
         flood-color="rgb(0,0,0)"
         result="flood"
         id="feFlood190" />
      <feComposite
         in="flood"
         in2="SourceGraphic"
         operator="in"
         result="composite1"
         id="feComposite192" />
      <feGaussianBlur
         in="composite1"
         stdDeviation="3"
         result="blur"
         id="feGaussianBlur194" />
      <feOffset
         dx="2"
         dy="2"
         result="offset"
         id="feOffset196" />
      <feComposite
         in="SourceGraphic"
         in2="offset"
         operator="over"
         result="composite2"
         id="feComposite198" />
    </filter>
  </defs>
  <sodipodi:namedview
     id="base"
     pagecolor="#ffffff"
     bordercolor="#666666"
     borderopacity="1.0"
     inkscape:pageopacity="0.0"
     inkscape:pageshadow="2"
     inkscape:zoom="3.959798"
     inkscape:cx="5.3149083"
     inkscape:cy="34.616679"
     inkscape:document-units="mm"
     inkscape:current-layer="layer1"
     showgrid="false"
     inkscape:window-width="1853"
     inkscape:window-height="1025"
     inkscape:window-x="67"
     inkscape:window-y="27"
     inkscape:window-maximized="1"
     fit-margin-top="0"
     fit-margin-left="0"
     fit-margin-right="0"
     fit-margin-bottom="0"
     units="px" />
  <metadata
     id="metadata5">
    <rdf:RDF>
      <cc:Work
         rdf:about="">
        <dc:format>image/svg+xml</dc:format>
        <dc:type
           rdf:resource="http://purl.org/dc/dcmitype/StillImage" />
        <dc:title></dc:title>
      </cc:Work>
    </rdf:RDF>
  </metadata>
  <g
     inkscape:label="Layer 1"
     inkscape:groupmode="layer"
     id="layer1"
     transform="translate(-89.904333,-131.48955)">
    <path
       style="fill:#800000;stroke-width:0.99999994"
       d="m 14.416016,11.550781 c -3.509308,0 -6.3339848,2.824677 -6.3339848,6.333985 V 118.60156 c 0,3.50931 2.8246768,6.33399 6.3339848,6.33399 H 115.13281 c 3.50931,0 6.33399,-2.82468 6.33399,-6.33399 V 17.884766 c 0,-3.509308 -2.82468,-6.333985 -6.33399,-6.333985 z m 3.490234,9.085938 h 26.208984 v 5.226562 H 24.029297 v 14.410157 h 17.695312 v 5.152343 H 24.029297 V 66.855469 H 17.90625 Z m 48.980469,10.751953 c 2.588444,0 4.753871,0.323592 6.496093,0.970703 1.792001,0.647111 3.236921,1.542611 4.332032,2.6875 1.095111,1.144889 1.866453,2.538974 2.314453,4.181641 0.448,1.642666 0.671875,3.435619 0.671875,5.376953 v 21.652343 c -1.443556,0.248889 -3.360667,0.54804 -5.75,0.896485 -2.339556,0.348444 -4.753299,0.523437 -7.242188,0.523437 -1.891555,0 -3.73339,-0.174993 -5.52539,-0.523437 -1.792,-0.298667 -3.385519,-0.846134 -4.779297,-1.642578 -1.393778,-0.846222 -2.513153,-1.991992 -3.359375,-3.435547 -0.846222,-1.443556 -1.269531,-3.285391 -1.269531,-5.525391 0,-1.991111 0.423309,-3.657953 1.269531,-5.001953 0.896,-1.393778 2.015375,-2.513153 3.359375,-3.359375 1.393778,-0.846222 2.962856,-1.444524 4.705078,-1.792969 1.792,-0.398222 3.583,-0.597656 5.375,-0.597656 2.439111,0 4.828413,0.27471 7.167969,0.822266 v -1.716797 c 0,-1.045333 -0.124158,-2.04055 -0.373047,-2.986328 -0.199111,-0.995556 -0.62242,-1.893009 -1.269531,-2.689453 -0.597334,-0.796445 -1.443952,-1.417235 -2.539063,-1.865235 -1.045333,-0.497778 -2.413024,-0.748047 -4.105469,-0.748047 -2.140444,0 -4.00672,0.150552 -5.599609,0.449219 -1.592889,0.298667 -2.813934,0.595865 -3.660156,0.894531 l -0.746094,-5.076172 c 0.846222,-0.398222 2.240307,-0.746255 4.181641,-1.044921 1.991111,-0.298667 4.105703,-0.449219 6.345703,-0.449219 z m 1.345703,19.414062 c -1.144889,0 -2.266217,0.09972 -3.361328,0.298828 -1.095111,0.149334 -2.065887,0.446532 -2.91211,0.894532 -0.846222,0.448 -1.542288,1.046302 -2.089843,1.792968 -0.547556,0.696889 -0.822266,1.592389 -0.822266,2.6875 0,2.240001 0.746901,3.809079 2.240234,4.705079 1.543112,0.846222 3.608821,1.269531 6.197266,1.269531 1.543111,0 2.912755,-0.05083 4.107422,-0.150391 1.244444,-0.09956 2.264102,-0.223713 3.060547,-0.373047 V 51.623047 c -0.796445,-0.248889 -1.767221,-0.44637 -2.91211,-0.595703 -1.095111,-0.149334 -2.263368,-0.22461 -3.507812,-0.22461 z"
       id="rect4837"
       transform="matrix(0.26458333,0,0,0.26458333,87.765962,128.43341)"
       inkscape:connector-curvature="0" />
    <text
       xml:space="preserve"
       style="font-style:normal;font-weight:normal;font-size:3.49655533px;line-height:1.25;font-family:sans-serif;letter-spacing:0px;word-spacing:0px;fill:#ffffff;fill-opacity:1;stroke:none;stroke-width:0.08741388"
       x="91.824982"
       y="156.43073"
       id="text204"><tspan
         sodipodi:role="line"
         x="91.824982"
         y="156.43073"
         style="font-style:normal;font-variant:normal;font-weight:normal;font-stretch:normal;font-size:4.66207361px;font-family:'Ubuntu Mono';-inkscape-font-specification:'Ubuntu Mono';fill:#ffffff;stroke-width:0.08741388"
         id="tspan206">fluent-amqp</tspan></text>
    <rect
       style="fill:#a02c2c;stroke-width:0.09144603"
       id="rect223"
       width="6.0352192"
       height="3.871186"
       x="111.86433"
       y="133.9529"
       rx="0.5537222"
       ry="0.5537222" />
    <rect
       style="fill:#a02c2c;stroke-width:0.09144603"
       id="rect223-5"
       width="6.0352192"
       height="3.871186"
       x="111.86433"
       y="139.35382"
       rx="0.5537222"
       ry="0.5537222" />
    <text
       xml:space="preserve"
       style="font-style:normal;font-weight:normal;font-size:3.49655533px;line-height:1.25;font-family:sans-serif;letter-spacing:0px;word-spacing:0px;fill:#ffffff;fill-opacity:1;stroke:none;stroke-width:0.08741388"
       x="113.18378"
       y="142.01204"
       id="text221"><tspan
         sodipodi:role="line"
         id="tspan219"
         x="113.18378"
         y="142.01204"
         style="font-style:normal;font-variant:normal;font-weight:normal;font-stretch:normal;font-size:2.33103681px;font-family:'Ubuntu Mono';-inkscape-font-specification:'Ubuntu Mono';fill:#ffffff;stroke-width:0.08741388">CLI</tspan></text>
    <text
       xml:space="preserve"
       style="font-style:normal;font-weight:normal;font-size:3.49655533px;line-height:1.25;font-family:sans-serif;letter-spacing:0px;word-spacing:0px;fill:#ffffff;fill-opacity:1;stroke:none;stroke-width:0.08741388"
       x="113.71643"
       y="136.62094"
       id="text221-1"><tspan
         sodipodi:role="line"
         id="tspan219-2"
         x="113.71643"
         y="136.62094"
         style="font-style:normal;font-variant:normal;font-weight:normal;font-stretch:normal;font-size:2.33103681px;font-family:'Ubuntu Mono';-inkscape-font-specification:'Ubuntu Mono';fill:#ffffff;stroke-width:0.08741388">go</tspan></text>
    <rect
       style="fill:#a02c2c;stroke-width:0.09144603"
       id="rect223-5-7"
       width="6.0352192"
       height="3.871186"
       x="111.86433"
       y="144.75476"
       rx="0.5537222"
       ry="0.5537222" />
    <text
       xml:space="preserve"
       style="font-style:normal;font-weight:normal;font-size:3.49655533px;line-height:1.25;font-family:sans-serif;letter-spacing:0px;word-spacing:0px;fill:#ffffff;fill-opacity:1;stroke:none;stroke-width:0.08741388"
       x="113.11736"
       y="147.48523"
       id="text221-0"><tspan
         sodipodi:role="line"
         id="tspan219-9"
         x="113.11736"
         y="147.48523"
         style="font-style:normal;font-variant:normal;font-weight:normal;font-stretch:normal;font-size:2.33103681px;font-family:'Ubuntu Mono';-inkscape-font-specification:'Ubuntu Mono';fill:#ffffff;stroke-width:0.08741388">lib</tspan></text>
  </g>
</svg>
